HIERARCHY
ROOT root
{
	OFFSET 0.000000 0.000000 0.000000
	CHANNELS 6 Xposition Yposition Zposition Zrotation Yrotation Xrotation
	JOINT lhip
	{
		OFFSET 0.058581 -0.082280 -0.017664
		CHANNELS 3 Zrotation Yrotation Xrotation
		JOINT lknee
		{
			OFFSET 0.043451 -0.386469 0.008037
			CHANNELS 3 Zrotation Yrotation Xrotation
			JOINT lankle
			{
				OFFSET -0.014790 -0.426874 -0.037428
				CHANNELS 3 Zrotation Yrotation Xrotation
				JOINT ltoe
				{
					OFFSET 0.041054 -0.060286 0.122042
					CHANNELS 3 Zrotation Yrotation Xrotation
					End Site
					{
						OFFSET 0.000000 0.000000 0.000000
					}
				}
			}
		}
	}
	JOINT rhip
	{
		OFFSET -0.060310 -0.090513 -0.013543
		CHANNELS 3 Zrotation Yrotation Xrotation
		JOINT rknee
		{
			OFFSET -0.043257 -0.383688 -0.004843
			CHANNELS 3 Zrotation Yrotation Xrotation
			JOINT rankle
			{
				OFFSET 0.019056 -0.420046 -0.034562
				CHANNELS 3 Zrotation Yrotation Xrotation
				JOINT rtoe
				{
					OFFSET -0.034840 -0.062106 0.130323
					CHANNELS 3 Zrotation Yrotation Xrotation
					End Site
					{
						OFFSET 0.000000 0.000000 0.000000
					}
				}
			}
		}
	}
	JOINT lowerback
	{
		OFFSET 0.004439 0.124404 -0.038385
		CHANNELS 3 Zrotation Yrotation Xrotation
		JOINT upperback
		{
			OFFSET 0.004488 0.137956 0.026820
			CHANNELS 3 Zrotation Yrotation Xrotation
			JOINT chest
			{
				OFFSET -0.002265 0.056032 0.002855
				CHANNELS 3 Zrotation Yrotation Xrotation
				JOINT lowerneck
				{
					OFFSET -0.013390 0.211636 -0.033468
					CHANNELS 3 Zrotation Yrotation Xrotation
					JOINT upperneck
					{
						OFFSET 0.010113 0.088937 0.050410
						CHANNELS 3 Zrotation Yrotation Xrotation
						End Site
						{
							OFFSET 0.000000 0.000000 0.000000
						}
					}
				}
				JOINT lclavicle
				{
					OFFSET 0.071702 0.114000 -0.018898
					CHANNELS 3 Zrotation Yrotation Xrotation
					JOINT lshoulder
					{
						OFFSET 0.122921 0.045205 -0.019046
						CHANNELS 3 Zrotation Yrotation Xrotation
						JOINT lelbow
						{
							OFFSET 0.255332 -0.015649 -0.022946
							CHANNELS 3 Zrotation Yrotation Xrotation
							JOINT lwrist
							{
								OFFSET 0.265709 0.012698 -0.007375
								CHANNELS 3 Zrotation Yrotation Xrotation
								End Site
								{
									OFFSET 0.000000 0.000000 0.000000
								}
							}
						}
					}
				}
				JOINT rclavicle
				{
					OFFSET -0.082954 0.112472 -0.023707
					CHANNELS 3 Zrotation Yrotation Xrotation
					JOINT rshoulder
					{
						OFFSET -0.113228 0.046853 -0.008472
						CHANNELS 3 Zrotation Yrotation Xrotation
						JOINT relbow
						{
							OFFSET -0.260127 -0.014369 -0.031269
							CHANNELS 3 Zrotation Yrotation Xrotation
							JOINT rwrist
							{
								OFFSET -0.269108 0.006794 -0.006027
								CHANNELS 3 Zrotation Yrotation Xrotation
								End Site
								{
									OFFSET 0.000000 0.000000 0.000000
								}
							}
						}
					}
				}
			}
		}
	}
}
MOTION
Frames: 14
Frame Time: 0.033333
-0.523045 0.251915 0.987241 95.586301 0.186117 88.759986 4.360429 -2.615827 -6.435368 -4.577302 -2.442253 16.174671 2.950861 5.214252 -13.048599 0.000000 -0.000000 0.000000 -2.446618 -3.260469 -6.768276 -0.663764 -2.678508 18.714286 1.147256 -3.433649 -16.948862 0.000000 -0.000000 0.000000 -1.724039 1.443839 -1.883436 3.928448 -4.618581 5.676867 -0.723026 -1.649958 0.621306 2.882323 9.046428 17.870273 -1.002779 3.778575 16.288932 -16.579246 4.897635 2.566899 -65.665472 -10.432980 22.803690 -61.356757 -83.165898 81.604746 -10.575115 -2.116222 -40.014226 14.654199 -3.810376 0.274571 64.436098 5.364758 28.671762 150.231822 83.392235 179.714791 18.447650 9.315966 -22.519061 
-0.522672 0.253523 0.986875 95.628485 0.230249 88.789371 4.201499 -1.990684 -6.616968 -4.717371 -3.471771 16.551853 3.033628 5.650750 -13.207636 0.000000 -0.000000 0.000000 -2.486685 -3.876284 -6.785522 -0.525461 -1.904734 18.662308 1.879607 -3.688688 -16.750852 0.000000 -0.000000 0.000000 -1.476690 1.464936 -1.290226 3.718710 -4.519331 4.728978 -0.846718 -1.774209 1.208618 2.908717 8.420457 16.964265 -1.143610 3.299902 17.173795 -16.283815 4.107755 1.712217 -64.012927 -9.624541 24.212979 -74.003254 -78.382112 100.279485 -0.190426 3.664955 -27.562910 14.544306 -3.651043 -0.340752 64.501198 5.252733 28.213170 141.072888 82.999115 170.348059 15.208933 8.681073 -22.509728 
-0.522271 0.254954 0.986549 95.678081 0.285647 88.780706 4.088349 -2.019986 -6.638200 -4.677458 -3.557356 16.748973 3.173226 5.817583 -13.315962 0.000000 -0.000000 0.000000 -2.500293 -3.951883 -6.645470 -0.454452 -1.768704 18.445376 1.985138 -3.745363 -16.522468 0.000000 -0.000000 0.000000 -1.574027 1.482237 -1.170319 3.685565 -4.580825 4.689513 -0.790989 -1.697105 1.278520 2.851511 8.471402 16.591825 -0.837081 3.534371 17.278537 -16.510320 3.552213 1.563576 -63.770327 -9.901312 24.390416 -72.992755 -78.770879 97.798359 3.064725 5.264468 -26.437397 14.915704 -3.312748 -0.455774 64.143041 5.392377 28.254742 142.070324 83.347825 170.517543 14.531772 8.453862 -21.688960 
-0.521282 0.256785 0.986653 95.520863 0.360838 88.826401 4.047275 -2.214353 -6.492767 -4.593348 -3.198162 16.602612 3.231124 5.793971 -13.405880 0.000000 -0.000000 0.000000 -2.494249 -3.732646 -6.522231 -0.551476 -1.938442 18.231042 2.113407 -3.715972 -16.447298 0.000000 -0.000000 0.000000 -1.760030 1.677512 -1.231129 3.800820 -4.513359 4.821936 -0.694930 -1.687667 1.214765 3.168895 8.678061 16.520858 -0.981858 3.262363 17.426889 -16.621035 3.269966 1.689094 -63.722538 -10.297426 24.309656 -71.927579 -78.698629 96.714972 0.965130 3.456816 -26.447204 15.036953 -3.177144 -0.349692 63.947261 5.667408 28.232951 143.931963 83.582055 172.483524 14.836514 8.694292 -21.846906 
-0.520443 0.257937 0.986630 95.387677 0.426763 88.862671 3.975355 -2.117142 -6.329352 -4.516931 -3.313620 16.399023 3.286560 5.870007 -13.395448 0.000000 -0.000000 0.000000 -2.465471 -3.904174 -6.484678 -0.623996 -1.828076 18.089008 2.212356 -3.591571 -16.341195 0.000000 -0.000000 0.000000 -1.678476 1.601378 -1.133333 3.686751 -4.559641 4.681223 -0.721596 -1.514915 1.153912 3.012310 8.583093 16.538784 -0.850137 3.552192 17.339017 -16.466380 3.315451 1.665225 -63.829042 -10.093989 24.202327 -71.498255 -78.959771 96.372427 2.230284 4.553493 -26.107301 14.991841 -3.020872 -0.369273 64.090482 5.692998 28.223534 143.175365 83.643684 171.658489 14.799006 8.521734 -21.723608 
-0.520463 0.259902 0.986545 95.210599 0.428114 88.912037 3.888322 -2.117604 -6.335126 -4.562041 -3.054392 16.392475 3.402746 5.843208 -13.460023 0.000000 -0.000000 0.000000 -2.636323 -3.802551 -6.592086 -0.556092 -1.845824 18.142881 2.309777 -3.508069 -16.318898 0.000000 -0.000000 0.000000 -1.699088 1.591728 -0.829143 3.645817 -4.461811 4.388688 -0.715166 -1.469535 1.101008 3.024362 8.661624 16.471670 -0.795536 3.484092 17.460876 -16.432057 3.257982 1.557379 -63.873570 -10.034185 24.176864 -71.124923 -79.031602 95.838939 2.384046 4.563018 -25.903365 14.967475 -2.921409 -0.337820 64.146007 5.832164 28.234000 143.359619 83.719857 171.733648 14.677900 8.383683 -21.484348 
-0.519928 0.261888 0.986374 95.022304 0.439491 89.046794 3.801396 -2.296856 -6.351167 -4.617685 -2.860356 16.305735 3.507962 6.021266 -13.549887 0.000000 -0.000000 0.000000 -2.762832 -3.801947 -6.633341 -0.537428 -1.623048 17.975413 2.359684 -3.355162 -16.286778 0.000000 -0.000000 0.000000 -1.751212 1.755929 -1.114255 3.631619 -4.426428 4.538707 -0.744843 -1.529983 1.231440 3.059993 8.757536 16.314075 -0.894787 3.523335 17.465757 -16.520505 3.102970 1.545135 -63.801149 -10.259758 24.291157 -69.973244 -79.233985 94.513623 2.844646 4.679527 -25.875921 15.087639 -2.862642 -0.389326 64.034587 6.104170 28.407979 144.070970 83.812096 172.357525 14.292229 8.468959 -21.410782 
-0.519066 0.263860 0.986354 94.928858 0.465494 89.123889 3.770260 -2.139719 -6.235713 -4.689010 -2.789065 16.081483 3.532611 5.849749 -13.515337 0.000000 -0.000000 0.000000 -2.870845 -3.681620 -6.556803 -0.599041 -1.647224 17.780509 2.461660 -3.239585 -16.236738 0.000000 -0.000000 0.000000 -1.740636 1.667411 -1.054658 3.537419 -4.458097 4.541817 -0.788643 -1.468642 0.994965 3.072671 8.959389 16.443809 -0.905124 3.716368 17.337028 -16.518738 3.125438 1.626992 -63.790858 -10.074612 24.056844 -70.752142 -79.388588 95.478602 1.748521 4.207128 -25.436927 15.062010 -2.784998 -0.304154 64.263252 6.063550 28.378983 144.420892 83.811245 172.790007 14.950515 8.490773 -21.424765 
-0.518867 0.267042 0.985160 94.793000 0.734170 89.721280 3.942518 -2.212105 -6.931330 -4.690511 -2.484699 16.199686 3.654548 5.752986 -13.577686 0.000000 -0.000000 0.000000 -2.791866 -3.406218 -7.278826 -0.563502 -1.772090 17.918099 2.454333 -3.215595 -16.219869 0.000000 -0.000000 0.000000 -1.294141 1.587081 -1.637989 3.548070 -4.264648 4.415528 -1.040198 -1.491885 1.136408 3.120245 8.982339 16.385027 -1.117752 3.543392 17.460073 -16.476673 3.212489 1.752769 -63.954531 -10.466415 23.991994 -69.589536 -79.060631 94.849921 -0.120600 3.007140 -25.813377 14.935984 -3.005852 -0.131709 64.368582 6.281211 28.386539 145.776659 83.790256 174.494380 15.308233 8.564287 -21.624210 
-0.517759 0.270531 0.984644 94.302737 0.705331 89.822082 3.797078 -2.010335 -6.724761 -4.810813 -2.213095 15.888780 3.762636 5.856717 -13.636414 0.000000 -0.000000 0.000000 -2.926440 -3.330098 -7.330233 -0.760394 -1.417361 17.785433 2.721312 -3.069525 -16.117175 0.000000 -0.000000 0.000000 -1.343351 1.649313 -1.570440 3.445546 -4.165019 4.382660 -1.025002 -1.367095 1.092738 2.763294 9.068744 16.146425 -1.067439 3.906140 17.357418 -16.544218 3.315280 1.507508 -64.056401 -10.245126 24.140967 -69.192440 -79.204888 94.076410 1.893660 4.113971 -25.197384 14.931153 -3.060584 -0.266365 64.397644 6.273799 28.433009 144.127464 83.814204 172.476428 15.168344 8.657279 -21.635424 
-0.517847 0.273714 0.984650 93.786234 0.693490 89.934857 3.617890 -1.860784 -6.761828 -4.864840 -1.906505 15.911680 3.917804 5.927120 -13.754231 0.000000 -0.000000 0.000000 -3.143092 -3.022952 -7.538517 -0.799288 -1.307805 17.861320 2.878873 -2.950600 -16.108799 0.000000 -0.000000 0.000000 -1.441483 1.829798 -1.659250 3.474438 -3.895640 4.506797 -1.051206 -1.323849 1.185571 2.851552 9.353893 16.063877 -1.172334 3.821638 17.316501 -16.609740 3.315161 1.538516 -64.208432 -10.605685 24.068887 -68.799224 -79.009306 93.989036 0.270223 2.612092 -25.664435 15.029351 -3.062654 -0.177052 64.384247 6.362038 28.490037 146.778773 83.909654 175.303006 15.188992 8.647020 -21.698367 
-0.518158 0.277856 0.984454 93.556827 0.697120 90.119013 3.393853 -1.954102 -7.032166 -4.956709 -1.753489 16.067853 4.193408 6.203932 -13.855499 0.000000 -0.000000 0.000000 -3.446990 -3.086490 -7.734494 -0.736951 -1.251915 17.849349 3.297432 -2.791398 -15.928196 0.000000 -0.000000 0.000000 -1.363840 1.862881 -1.559044 3.421614 -3.881137 4.400068 -1.118526 -1.226548 1.241050 2.765123 9.472162 15.991552 -1.204921 3.957007 17.364284 -16.668482 3.253940 1.543553 -64.311251 -10.610263 24.236620 -68.859687 -78.998066 93.663216 0.126340 2.828228 -26.055380 15.061628 -3.093481 -0.165640 64.348399 6.386325 28.509682 148.590642 83.945339 176.844881 15.492419 8.722335 -21.755319 
-0.517978 0.282147 0.984413 93.118460 0.775987 90.279061 3.210271 -1.787702 -7.112078 -4.964125 -1.547096 16.050350 4.289403 6.293539 -13.991294 0.000000 -0.000000 0.000000 -3.612222 -3.075352 -7.889048 -0.816329 -1.020315 17.674523 3.281781 -2.494618 -15.769976 0.000000 -0.000000 0.000000 -1.170731 1.923264 -1.422000 3.355190 -3.737720 4.266680 -1.147553 -1.122758 1.163586 2.626526 9.574997 16.171192 -1.320332 4.164229 17.406208 -16.697893 3.357376 1.463269 -64.382412 -10.537281 24.171977 -68.728010 -78.839520 93.926583 -0.560083 2.652149 -25.806962 15.048170 -3.138675 0.041354 64.200499 6.498231 28.442872 148.158197 83.870158 176.574418 15.573601 8.585145 -21.896582 
-0.518035 0.286945 0.984217 92.699920 0.769427 90.306249 2.802965 -1.747279 -7.143044 -4.822262 -1.360874 16.072899 4.561578 6.431976 -13.878103 0.000000 -0.000000 0.000000 -3.913332 -3.087755 -7.998292 -0.865241 -0.744861 17.644837 3.520055 -2.326654 -15.648926 0.000000 -0.000000 0.000000 -1.089040 2.038997 -1.179282 3.295178 -3.627455 4.249509 -1.165068 -1.102981 1.205258 2.467319 9.626939 16.178490 -1.315233 4.415426 17.490853 -16.672823 3.340780 1.332502 -64.498061 -10.480540 24.290131 -68.399422 -78.874355 93.498051 0.546766 2.705675 -25.526659 14.970573 -3.086009 -0.054863 64.163651 6.544290 28.440298 147.698796 83.960233 175.942687 15.251422 8.695307 -21.635653 
